<?xml version="1.0" standalone="no"?>
<!DOCTYPE svg PUBLIC "-//W3C//DTD SVG 20010904//EN"
 "http://www.w3.org/TR/2001/REC-SVG-20010904/DTD/svg10.dtd">
<svg version="1.0" xmlns="http://www.w3.org/2000/svg"
 width="300.000000pt" height="300.000000pt" viewBox="0 0 300.000000 300.000000"
 preserveAspectRatio="xMidYMid meet">
<metadata>
Created by potrace 1.10, written by Peter Selinger 2001-2011
</metadata>
<g transform="translate(0.000000,300.000000) scale(0.100000,-0.100000)"
fill="#ffffffff" stroke="none">
<path d="M1557 2302 c-22 -24 -22 -29 9 -57 24 -23 27 -23 50 -8 27 17 31 33
9 33 -9 0 -20 -10 -25 -22 l-9 -23 -7 23 c-3 12 -13 22 -20 22 -21 0 -17 17 6
23 11 3 20 10 20 16 0 17 -15 13 -33 -7z"/>
<path d="M1593 2154 c-9 -23 13 -40 32 -24 8 7 15 17 15 23 0 6 -6 3 -13 -8
-11 -14 -16 -15 -22 -5 -4 7 -2 16 6 21 11 7 11 9 1 9 -7 0 -15 -7 -19 -16z"/>
<path d="M1770 2084 c28 -32 46 -35 76 -9 27 24 28 25 7 25 -14 0 -24 -8 -29
-22 l-7 -23 -8 23 c-5 13 -17 22 -30 22 -18 0 -20 -2 -9 -16z"/>
<path d="M1024 2070 c-12 -4 -24 -18 -27 -29 -5 -20 -4 -20 19 -3 18 13 42 44
31 41 -1 0 -12 -4 -23 -9z"/>
<path d="M1440 1946 c-19 -7 -44 -27 -55 -44 -11 -17 -25 -31 -30 -32 -18 0
-9 -125 11 -159 9 -16 36 -38 58 -49 49 -23 159 -37 153 -19 -2 7 7 20 20 30
79 62 68 218 -18 263 -41 21 -98 25 -139 10z m152 -54 c25 -25 32 -41 36 -85
4 -49 2 -57 -28 -90 -88 -100 -230 -46 -230 88 0 42 5 52 40 87 39 39 42 40
96 36 45 -4 61 -10 86 -36z"/>
<path d="M1068 1893 c-10 -2 -18 -9 -18 -14 0 -5 -8 -9 -17 -9 -13 0 -14 -3
-5 -12 9 -9 18 -5 38 15 15 15 25 26 23 26 -2 -1 -12 -3 -21 -6z"/>
<path d="M974 1608 l1 -68 58 0 c35 0 57 4 57 11 0 6 -9 9 -20 6 -11 -3 -20
-1 -20 4 0 4 -6 6 -12 4 -21 -8 -33 7 -49 60 l-16 50 1 -67z"/>
<path d="M936 1635 c-3 -9 -6 -28 -6 -42 0 -18 -4 -24 -15 -19 -10 3 -15 -1
-15 -12 0 -10 -5 -23 -12 -30 -9 -9 -8 -12 5 -12 9 0 17 5 17 10 0 6 8 10 18
10 14 0 19 9 20 37 2 20 5 39 7 43 2 3 0 12 -4 19 -6 10 -10 9 -15 -4z"/>
<path d="M1714 1598 c1 -53 3 -58 24 -58 l22 0 0 -245 c0 -157 -4 -245 -10
-245 -6 0 -11 86 -12 233 l-2 232 -6 -235 -6 -235 -2 237 c-1 145 -6 239 -12
243 -7 4 -10 -62 -10 -189 0 -124 -4 -196 -10 -196 -5 0 -11 10 -11 23 -1 19
-2 20 -6 3 -3 -11 2 -25 11 -32 10 -6 17 -27 18 -48 1 -32 5 -37 32 -45 38
-10 44 -1 48 68 2 28 6 51 11 51 4 0 7 -4 7 -9 0 -5 8 -12 18 -14 16 -4 16 -5
0 -6 -18 -1 -14 -31 4 -31 5 0 7 4 4 9 -6 9 23 25 31 18 2 -3 6 -27 10 -56 10
-90 23 -55 23 67 l0 118 40 -4 40 -4 0 -114 c0 -69 4 -114 10 -114 6 0 10 14
10 30 0 17 5 31 10 31 6 1 16 2 23 3 6 1 15 -8 19 -19 6 -19 6 -19 7 3 1 18 7
22 35 22 30 0 33 2 28 25 -3 16 -11 25 -23 25 -32 0 -21 18 14 23 27 3 25 4
-12 5 -37 2 -42 4 -31 17 7 8 26 15 43 15 47 0 27 9 -26 11 -59 3 -62 19 -3
19 39 0 44 2 39 20 -5 19 9 26 40 21 4 0 7 29 7 66 0 74 -7 82 -11 13 -3 -43
-18 -72 -36 -69 -21 4 -116 -3 -105 -8 12 -5 18 -33 6 -33 -12 0 -34 30 -34
47 -1 17 -1 17 -11 1 -14 -25 -36 -22 -43 6 -4 18 -11 23 -26 19 -12 -3 -20
-2 -19 3 1 5 0 16 -1 24 -3 18 -19 -70 -22 -117 -1 -28 -5 -33 -27 -33 -24 1
-24 2 -8 14 21 16 22 26 1 26 -8 0 -12 -4 -9 -10 3 -5 -2 -10 -13 -10 -15 0
-18 5 -14 25 2 14 8 22 13 19 5 -3 17 0 26 5 15 9 13 10 -13 11 -30 0 -32 2
-32 35 0 32 3 35 29 35 33 0 36 22 4 30 -18 5 -20 16 -23 88 -3 74 -5 84 -27
98 -14 9 -22 20 -19 25 3 5 -1 9 -8 9 -9 0 -9 3 2 10 13 8 13 10 -2 10 -9 0
-18 10 -21 23 -2 12 -4 -4 -3 -35z m386 -349 c0 -5 -11 -9 -25 -9 -14 0 -25 6
-25 14 0 9 8 12 25 8 14 -2 25 -8 25 -13z m-294 -58 c5 -5 18 -11 29 -14 12
-3 5 -5 -16 -6 -26 -1 -36 3 -36 14 0 17 9 19 23 6z m234 -5 c0 -8 -10 -17
-22 -19 -20 -4 -19 -4 5 -6 33 -1 35 -14 5 -30 -13 -6 -15 -9 -5 -7 10 3 17 0
17 -8 0 -8 -10 -16 -22 -18 -24 -4 -24 -5 -19 90 1 17 41 15 41 -2z"/>
<path d="M1689 1628 c-1 -7 -2 -17 -4 -23 -1 -5 -3 -18 -3 -27 -1 -10 -9 -18
-17 -18 -16 0 -61 -93 -47 -98 6 -2 8 -11 5 -21 -2 -10 -5 -72 -6 -137 l-2
-119 -45 -5 c-31 -3 -40 -7 -27 -12 9 -4 17 -14 17 -23 0 -8 8 -15 18 -15 14
0 15 2 2 10 -8 5 -12 10 -10 12 54 34 53 35 50 -44 -1 -27 2 -48 7 -48 4 0 8
16 9 35 0 18 6 52 14 74 9 28 11 85 8 205 l-4 166 23 0 c21 0 23 4 23 50 0 28
-2 50 -5 50 -3 0 -6 -6 -6 -12z"/>
<path d="M1945 1620 c-17 -18 -17 -20 -1 -20 9 0 19 6 22 14 4 11 11 8 31 -10
33 -31 44 -22 13 11 -28 30 -41 31 -65 5z"/>
<path d="M1937 1565 c17 -23 63 -32 55 -11 -2 5 2 13 10 17 10 7 10 9 0 9 -7
0 -15 -7 -19 -16 -5 -15 -8 -15 -17 -2 -6 8 -19 17 -29 21 -17 6 -17 6 0 -18z"/>
<path d="M1101 1283 c0 -153 4 -250 9 -238 5 11 9 34 9 52 1 17 6 35 12 38 7
5 4 14 -7 26 -12 14 -14 23 -7 30 6 6 8 30 5 55 l-5 44 57 0 c56 0 56 0 56
-30 0 -16 -4 -30 -9 -30 -5 0 -8 -8 -7 -17 1 -11 -7 -17 -21 -17 -13 0 -23 4
-22 9 0 6 7 9 15 9 8 -1 14 2 14 7 0 5 -9 9 -20 9 -11 0 -20 5 -20 11 0 6 8 8
18 5 9 -3 23 -2 31 3 9 6 -2 10 -33 12 -44 4 -61 -3 -33 -14 9 -4 8 -8 -3 -16
-10 -7 -11 -11 -2 -11 6 0 12 -7 12 -15 0 -8 -5 -15 -11 -15 -8 0 -8 -4 0 -14
8 -9 22 -11 51 -6 39 7 40 7 40 -22 0 -16 -4 -27 -8 -24 -10 6 -9 -30 1 -40 4
-4 7 -20 7 -36 0 -15 5 -28 10 -28 6 0 10 72 10 195 l0 195 70 0 70 0 0 -196
c0 -152 3 -195 13 -191 7 2 11 15 9 31 -4 27 12 56 29 56 16 0 9 -18 -8 -23
-15 -4 -16 -5 -2 -6 9 0 19 -10 22 -21 5 -20 37 -29 37 -10 0 6 -7 10 -15 10
-8 0 -15 5 -15 10 0 6 12 4 29 -5 28 -14 30 -14 36 5 5 15 15 20 42 20 20 0
33 3 29 7 -4 4 -23 6 -42 4 -20 -1 -34 2 -34 9 0 7 8 9 21 5 15 -5 19 -4 15 4
-4 6 -13 11 -19 11 -7 0 -13 15 -14 34 -3 35 -3 35 35 30 39 -4 35 0 -8 10
-24 5 -25 9 -28 88 -2 45 -7 85 -11 88 -5 3 -8 24 -9 48 0 23 -1 48 -2 55 -4
19 -18 -44 -19 -85 0 -20 -7 -39 -13 -41 -8 -3 -6 -6 5 -6 18 -1 19 -3 22 -72
3 -45 3 -45 -29 -43 l-31 3 30 -7 c30 -7 30 -8 32 -79 2 -66 1 -71 -17 -66
-25 7 -26 20 -2 26 15 4 15 5 0 6 -10 1 -18 12 -21 29 l-4 27 -2 -27 c-1 -26
-21 -42 -21 -17 0 5 -4 8 -9 5 -5 -4 -7 3 -4 15 3 11 15 25 27 30 20 8 19 9
-4 6 -27 -2 -34 17 -16 42 9 12 8 13 -3 7 -11 -7 -12 6 -5 75 10 102 7 150 -8
164 -7 7 -9 7 -5 0 13 -24 -12 -38 -69 -40 -33 -1 -64 -3 -71 -4 -22 -2 -43
-32 -43 -62 0 -44 -19 -70 -43 -58 -13 7 -23 7 -33 -2 -26 -21 -38 3 -27 50 6
22 8 43 4 46 -3 4 -4 33 -3 65 2 34 -1 60 -7 64 -8 5 -11 -68 -10 -251z"/>
<path d="M851 1461 c2 -28 6 -48 11 -45 11 7 6 94 -5 94 -4 0 -7 -22 -6 -49z"/>
<path d="M971 1488 c-1 -11 -8 -17 -18 -16 -38 3 -64 -2 -58 -12 3 -5 15 -10
26 -10 10 0 19 -4 19 -10 0 -5 -12 -10 -26 -10 -14 0 -23 -4 -19 -10 3 -5 15
-10 26 -10 12 0 19 -5 16 -12 -2 -7 -11 -12 -20 -10 -8 1 -18 -2 -22 -8 -3 -5
2 -10 12 -10 11 0 25 -6 32 -12 11 -10 13 -10 7 0 -5 8 1 12 17 12 20 0 26 -6
29 -29 4 -25 0 -31 -21 -36 -15 -4 -27 -2 -29 4 -3 10 -62 -13 -62 -23 0 -18
15 -36 30 -36 10 0 21 -6 24 -12 5 -10 7 -10 12 0 8 17 44 15 44 -2 0 -11 -15
-16 -52 -18 l-53 -3 -1 -38 c-1 -21 2 -33 6 -27 4 7 13 9 19 6 6 -4 11 -2 11
3 0 21 41 11 50 -11 10 -23 10 -23 7 2 -1 19 -8 26 -29 28 -40 5 -37 33 2 30
17 -1 30 -6 30 -11 0 -4 6 -5 13 0 6 4 18 8 25 9 21 4 27 14 9 14 -9 0 -17 7
-17 15 0 8 8 15 18 15 13 0 17 7 16 28 0 15 -6 27 -14 27 -7 0 -15 6 -17 13
-3 7 4 12 17 12 12 0 19 4 15 10 -3 5 -12 7 -20 3 -9 -3 -15 1 -15 11 0 11 10
16 33 17 30 0 30 1 9 10 -13 5 -28 7 -33 3 -5 -3 -9 2 -9 10 0 11 9 16 30 16
30 0 37 11 24 44 -9 24 -55 20 -61 -4 -3 -11 -9 -20 -14 -20 -13 0 -11 12 6
34 8 11 15 25 15 30 0 6 -6 2 -12 -9 -11 -19 -11 -19 -19 0 -6 17 -8 17 -8 3z
m25 -96 c-9 -15 -46 -11 -46 4 0 15 31 24 44 13 4 -4 5 -12 2 -17z m-6 -116
c0 -10 -10 -14 -30 -14 -18 1 -30 6 -30 15 0 8 12 13 30 13 19 0 30 -5 30 -14z"/>
<path d="M1671 1351 c-1 -85 1 -152 3 -150 9 9 15 237 7 269 -6 25 -9 -8 -10
-119z"/>
<path d="M2073 1442 c-13 -2 -23 -7 -23 -12 0 -4 -11 -7 -25 -5 -14 1 -28 -2
-31 -6 -3 -5 28 -9 68 -9 45 0 68 4 59 9 -7 5 -16 13 -20 17 -3 5 -16 8 -28 6z"/>
<path d="M1340 1371 c0 -6 -6 -11 -12 -10 -33 4 -48 -2 -48 -20 0 -11 4 -22 9
-25 5 -4 7 4 4 15 -4 16 -2 20 8 17 19 -7 14 -59 -6 -70 -19 -11 -19 -37 0
-44 10 -4 15 -20 15 -45 0 -40 -15 -53 -23 -21 -3 10 -4 6 -4 -8 1 -22 5 -25
36 -25 l34 1 0 117 c0 65 -3 121 -7 124 -3 3 -6 1 -6 -6z"/>
<path d="M2008 1368 c-7 -4 15 -8 50 -8 41 0 61 4 57 10 -8 12 -88 11 -107 -2z"/>
<path d="M2028 1343 c17 -2 47 -2 65 0 17 2 3 4 -33 4 -36 0 -50 -2 -32 -4z"/>
<path d="M2004 1313 c10 -11 99 -13 116 -2 10 5 -9 8 -54 9 -38 0 -66 -3 -62
-7z"/>
<path d="M1940 1206 c0 -24 -5 -36 -17 -39 -14 -4 -12 -5 5 -6 19 -1 22 4 22
39 0 22 -2 40 -5 40 -3 0 -5 -15 -5 -34z"/>
<path d="M1010 1180 c-15 -9 -20 -69 -5 -67 6 1 9 -4 8 -10 -2 -7 2 -13 8 -13
6 0 9 6 6 13 -2 6 2 20 11 30 10 11 11 17 4 17 -7 0 -12 -4 -12 -10 0 -5 -4
-10 -10 -10 -5 0 -10 7 -10 15 0 8 7 15 15 15 8 0 15 4 15 9 0 15 -15 21 -30
11z"/>
<path d="M1148 1095 c-4 -34 -3 -35 32 -34 30 2 31 3 7 6 -23 4 -26 8 -23 29
3 13 1 26 -4 29 -4 3 -10 -11 -12 -30z"/>
<path d="M1275 1020 c-4 -6 13 -10 44 -10 28 0 51 5 51 10 0 6 -20 10 -44 10
-25 0 -48 -4 -51 -10z"/>
<path d="M2035 938 c-58 -57 -175 -135 -242 -160 -32 -12 -52 -23 -45 -26 7
-2 56 17 109 43 75 37 113 63 162 112 35 35 62 65 60 67 -2 2 -22 -14 -44 -36z"/>
<path d="M1100 819 c85 -53 193 -93 270 -103 115 -15 329 1 355 27 7 6 2 8
-15 3 -195 -49 -420 -23 -576 65 -59 33 -86 39 -34 8z"/>
</g>
</svg>
