<?xml version="1.0" standalone="no"?>
<!DOCTYPE svg PUBLIC "-//W3C//DTD SVG 20010904//EN"
 "http://www.w3.org/TR/2001/REC-SVG-20010904/DTD/svg10.dtd">
<svg version="1.0" xmlns="http://www.w3.org/2000/svg"
 width="300.000000pt" height="169.000000pt" viewBox="0 0 300.000000 169.000000"
 preserveAspectRatio="xMidYMid meet">
<metadata>
Created by potrace 1.10, written by Peter Selinger 2001-2011
</metadata>
<g transform="translate(0.000000,169.000000) scale(0.100000,-0.100000)"
fill="#ffff" stroke="none">
<path d="M365 855 l0 -295 96 0 96 0 10 46 11 45 -52 -2 -51 -3 -3 88 -3 88
70 -4 69 -3 10 48 9 48 -76 -2 -76 -2 -3 76 -3 77 96 0 c74 0 95 3 95 14 0 7
3 28 6 45 l7 31 -154 0 -154 0 0 -295z m265 256 c0 -14 -28 -21 -88 -21 -80 0
-102 -22 -102 -106 0 -82 18 -105 88 -112 66 -6 68 -22 4 -22 -70 0 -89 -24
-91 -117 -2 -66 0 -75 23 -98 14 -14 34 -25 46 -25 11 0 20 -4 20 -10 0 -6
-28 -10 -65 -10 l-65 0 0 258 c0 142 3 262 7 265 10 10 223 8 223 -2z"/>
<path d="M697 1134 c-20 -74 -20 -74 21 -74 81 0 123 -78 69 -128 -18 -17 -36
-22 -79 -22 l-56 0 -7 -40 c-4 -22 -6 -42 -6 -45 1 -4 32 -7 69 -8 77 -3 116
-21 126 -61 17 -69 -38 -106 -157 -106 l-74 0 -10 -45 -10 -45 89 0 c114 0
167 14 217 57 46 39 67 93 57 147 -7 37 -57 96 -82 96 -20 0 -18 4 21 43 31
31 35 41 35 85 0 89 -61 148 -164 159 -47 5 -54 3 -59 -13z m142 -55 c57 -42
60 -100 11 -169 -27 -39 -26 -47 20 -96 46 -51 52 -89 20 -142 -29 -48 -89
-72 -175 -70 l-70 1 67 7 c106 10 168 69 154 144 -8 43 -53 83 -104 91 -65 11
-68 17 -17 30 65 17 95 52 95 110 0 34 -6 50 -29 74 -16 17 -36 31 -44 31 -9
0 -19 5 -23 12 -12 19 62 2 95 -23z"/>
<path d="M1100 975 l0 -165 115 0 115 0 0 26 0 25 -87 -2 -88 -2 -3 51 -3 52
75 0 c69 0 76 2 76 20 0 18 -7 20 -76 20 l-75 0 3 47 3 46 83 -2 c82 -2 82 -2
82 23 l0 26 -110 0 -110 0 0 -165z"/>
<path d="M1372 1132 c2 -4 32 -79 67 -165 85 -211 84 -211 172 8 l65 165 -27
0 c-26 0 -30 -7 -75 -130 -26 -72 -50 -127 -54 -123 -4 5 -27 63 -51 130 -42
118 -45 123 -72 123 -16 0 -27 -4 -25 -8z"/>
<path d="M1740 975 l0 -165 110 0 110 0 0 26 0 26 -85 -3 -85 -4 0 53 0 52 75
0 c68 0 75 2 75 20 0 18 -7 20 -75 20 l-75 0 0 48 0 47 85 -3 85 -3 0 25 0 26
-110 0 -110 0 0 -165z"/>
<path d="M2040 975 l0 -165 25 0 c24 0 24 0 27 116 l3 117 90 -116 c66 -85 96
-116 113 -116 22 -1 22 -1 22 164 l0 165 -25 0 -25 0 0 -121 0 -121 -92 121
c-69 89 -99 120 -115 121 -23 0 -23 0 -23 -165z"/>
<path d="M2390 1114 c0 -24 2 -25 53 -23 l52 3 3 -142 3 -142 24 0 25 0 0 143
0 142 55 -3 c53 -4 55 -3 55 22 l0 26 -135 0 -135 0 0 -26z"/>
<path d="M1353 745 c-38 -16 -53 -42 -53 -91 0 -74 80 -119 137 -79 33 23 47
76 30 117 -24 57 -63 75 -114 53z m58 -26 c40 -21 44 -97 6 -121 -61 -39 -119
60 -67 112 23 23 33 24 61 9z"/>
<path d="M1575 746 c-60 -26 -74 -109 -26 -157 56 -56 137 -25 148 57 4 36 1
45 -23 72 -36 38 -60 45 -99 28z m74 -42 c38 -49 16 -114 -39 -114 -55 0 -80
75 -40 118 28 29 54 28 79 -4z"/>
<path d="M1836 710 c-26 -27 -49 -50 -52 -50 -3 0 -4 20 -2 45 3 38 0 45 -14
45 -16 0 -18 -11 -18 -95 0 -88 1 -95 20 -95 16 0 19 5 14 28 -4 20 0 33 14
45 19 17 20 17 48 -28 17 -26 37 -45 47 -45 15 0 13 7 -15 46 -18 25 -36 48
-41 51 -4 2 8 24 28 48 19 24 35 46 35 49 0 16 -22 1 -64 -44z"/>
<path d="M2184 746 c-3 -8 -4 -40 -2 -71 1 -30 1 -55 -2 -55 -3 1 -27 30 -54
65 -67 90 -76 87 -76 -30 0 -78 3 -95 15 -95 12 0 15 14 15 68 l1 67 32 -40
c57 -70 85 -100 91 -95 11 11 9 194 -3 198 -6 2 -14 -3 -17 -12z"/>
<path d="M2321 746 c-57 -32 -68 -111 -22 -157 31 -30 59 -36 92 -19 13 7 19
7 19 0 0 -5 7 -10 15 -10 11 0 15 12 15 50 l0 50 -35 0 c-25 0 -35 -4 -35 -16
0 -11 6 -14 20 -9 13 4 20 2 20 -7 0 -22 -22 -38 -51 -38 -53 0 -79 80 -39
120 24 24 38 25 69 4 29 -21 49 -5 24 18 -26 24 -65 30 -92 14z"/>
<path d="M2520 747 c-28 -14 -39 -59 -20 -82 7 -8 27 -17 46 -21 36 -7 59 -27
49 -44 -8 -13 -61 -13 -85 0 -13 7 -21 7 -26 -1 -10 -17 10 -30 55 -36 50 -7
91 16 91 51 0 29 -13 40 -67 57 -30 8 -43 18 -43 30 0 23 33 33 60 19 20 -11
40 -6 40 10 0 7 -53 30 -69 30 -3 0 -17 -6 -31 -13z"/>
<path d="M1100 655 l0 -95 56 0 c30 0 64 5 75 10 23 13 26 62 4 80 -13 11 -13
14 0 27 39 39 4 73 -76 73 l-59 0 0 -95z m110 60 c19 -22 -5 -45 -46 -45 -31
0 -34 3 -34 30 0 27 3 30 34 30 18 0 39 -7 46 -15z m5 -95 c0 -22 -5 -25 -42
-28 -42 -3 -43 -2 -43 28 0 30 1 31 43 28 37 -3 42 -6 42 -28z"/>
<path d="M1950 655 c0 -84 2 -95 18 -95 15 0 17 11 17 95 0 84 -2 95 -17 95
-16 0 -18 -11 -18 -95z"/>
</g>
</svg>
